<?xml version="1.0" standalone="no"?>
<!DOCTYPE svg PUBLIC "-//W3C//DTD SVG 20010904//EN"
 "http://www.w3.org/TR/2001/REC-SVG-20010904/DTD/svg10.dtd">
<svg version="1.0" xmlns="http://www.w3.org/2000/svg"
 width="700.000000pt" height="700.000000pt" viewBox="0 0 700.000000 700.000000"
 preserveAspectRatio="xMidYMid meet">
<metadata>
Created by potrace 1.11, written by Peter Selinger 2001-2013
</metadata>
<g transform="translate(0.000000,700.000000) scale(0.100000,-0.100000)"
fill="#000000" stroke="none">
<path d="M4938 5365 c-1 -1 -55 -5 -118 -8 -63 -4 -124 -8 -135 -11 -11 -2
-45 -7 -75 -11 -155 -21 -479 -103 -575 -146 -11 -5 -54 -20 -95 -35 -145 -51
-414 -178 -555 -261 -128 -76 -365 -238 -385 -262 -3 -4 -18 -17 -35 -30 -82
-63 -194 -167 -460 -427 -204 -199 -328 -301 -441 -364 l-42 -22 -68 22 c-98
32 -265 114 -439 215 -82 48 -163 95 -180 105 -16 9 -54 31 -83 49 -276 163
-457 217 -578 170 -133 -50 -202 -246 -143 -405 32 -85 130 -178 289 -273 69
-41 162 -99 207 -128 90 -59 208 -170 223 -208 14 -37 -8 -88 -95 -220 -41
-64 -85 -139 -96 -168 -41 -102 -21 -216 49 -282 51 -48 88 -56 236 -50 175 7
179 6 212 -61 22 -46 27 -68 26 -137 0 -92 -2 -109 -38 -285 -28 -138 -32
-217 -14 -283 34 -126 154 -201 325 -203 66 -1 99 4 126 16 45 22 103 85 125
135 17 42 49 158 58 216 12 73 39 172 63 227 24 54 60 103 72 96 3 -2 36 -7
73 -10 37 -4 77 -9 90 -11 13 -2 41 -6 63 -9 45 -5 107 -15 145 -22 14 -3 59
-11 100 -19 87 -15 314 -71 475 -115 254 -71 464 -121 569 -135 61 -9 125 -18
141 -21 55 -9 578 -12 680 -4 135 11 209 19 275 30 30 5 71 12 90 15 392 66
738 236 942 463 35 39 41 41 105 47 224 17 298 32 326 63 13 15 51 183 72 317
3 22 8 52 10 66 37 211 42 720 9 924 -6 37 -23 132 -29 164 -40 209 -131 445
-236 613 -198 320 -477 528 -826 617 -44 11 -97 23 -119 27 -21 3 -41 7 -44 9
-3 2 -55 7 -115 10 -61 4 -120 8 -132 10 -12 2 -23 2 -25 0z"/>
</g>
</svg>
