<?xml version="1.0" encoding="UTF-8" standalone="no"?>
<!-- Created with Inkscape (http://www.inkscape.org/) -->

<svg
   xmlns:dc="http://purl.org/dc/elements/1.1/"
   xmlns:cc="http://creativecommons.org/ns#"
   xmlns:rdf="http://www.w3.org/1999/02/22-rdf-syntax-ns#"
   xmlns:svg="http://www.w3.org/2000/svg"
   xmlns="http://www.w3.org/2000/svg"
   xmlns:xlink="http://www.w3.org/1999/xlink"
   xmlns:sodipodi="http://sodipodi.sourceforge.net/DTD/sodipodi-0.dtd"
   xmlns:inkscape="http://www.inkscape.org/namespaces/inkscape"
   width="2516.3755"
   height="769.71289"
   viewBox="0 0 665.79107 203.6532"
   version="1.1"
   id="svg8"
   inkscape:version="0.92.4 (5da689c313, 2019-01-14)"
   sodipodi:docname="Disability &amp; Discussion Print.svg"
   inkscape:export-filename="C:\Users\jonah\Pictures\D&amp;Dprint.png"
   inkscape:export-xdpi="96"
   inkscape:export-ydpi="96">
  <defs
     id="defs2">
    <pattern
       inkscape:collect="always"
       xlink:href="#pattern2223"
       id="pattern2244"
       patternTransform="matrix(0.23297741,0,0,0.77478093,512.95374,39.587197)" />
    <pattern
       patternTransform="translate(-5.1259843e-4,-3.8459645e-5)"
       id="pattern2131"
       xlink:href="#pattern2120"
       inkscape:collect="always" />
    <pattern
       id="pattern2120"
       height="480"
       width="777"
       patternUnits="userSpaceOnUse">
      <g
         id="g2118">
        <rect
           style="fill:#750787"
           y="0"
           x="0"
           id="rect1549"
           height="480"
           width="777" />
        <rect
           style="fill:#004dff"
           y="0"
           x="0"
           id="rect1551"
           height="400"
           width="777" />
        <rect
           style="fill:#008026"
           y="0"
           x="0"
           id="rect1553"
           height="320"
           width="777" />
        <rect
           style="fill:#ffed00"
           y="0"
           x="0"
           id="rect1555"
           height="240"
           width="777" />
        <rect
           style="fill:#ff8c00"
           y="0"
           x="0"
           id="rect1557"
           height="160"
           width="777" />
        <rect
           style="fill:#e40303"
           y="0"
           x="0"
           id="rect1559"
           height="80"
           width="777" />
      </g>
    </pattern>
    <pattern
       patternUnits="userSpaceOnUse"
       width="777.00001"
       height="480"
       patternTransform="matrix(0.26458333,0,0,0.26458333,225.2927,-198.74284)"
       id="pattern2891">
      <rect
         style="fill:url(#pattern2131);stroke:none;stroke-width:0.99999994"
         width="777"
         height="480"
         x="0"
         y="2.2737368e-13"
         id="rect2129" />
    </pattern>
    <pattern
       patternUnits="userSpaceOnUse"
       width="776.99999"
       height="479.99999"
       patternTransform="matrix(0.26458333,0,0,0.26458333,476.70358,-197.42518)"
       id="pattern2223">
      <g
         id="g2221">
        <path
           style="fill:#750787"
           inkscape:connector-curvature="0"
           d="M 0,0 H 777 V 480 H 0 Z"
           id="path2189" />
        <path
           style="fill:#004dff"
           inkscape:connector-curvature="0"
           d="M 0,0 H 777 V 420 H 0 Z"
           id="path2191" />
        <path
           style="fill:#008026"
           inkscape:connector-curvature="0"
           d="M 0,0 H 777 V 360 H 0 Z"
           id="path2193" />
        <path
           style="fill:#ffed00"
           inkscape:connector-curvature="0"
           d="M 0,0 H 777 V 300 H 0 Z"
           id="path2195" />
        <path
           style="fill:#ff8c00"
           inkscape:connector-curvature="0"
           d="M 0,0 H 777 V 240 H 0 Z"
           id="path2197" />
        <path
           style="fill:#e40303"
           inkscape:connector-curvature="0"
           d="M 0,0 H 777 V 180 H 0 Z"
           id="path2199" />
        <path
           style="fill:#784f17"
           inkscape:connector-curvature="0"
           d="M 0,0 H 777 V 120 H 0 Z"
           id="path2201" />
        <path
           inkscape:connector-curvature="0"
           d="M 0,0 H 777 V 60 H 0 Z"
           id="path2203" />
      </g>
    </pattern>
  </defs>
  <sodipodi:namedview
     id="base"
     pagecolor="#00537b"
     bordercolor="#666666"
     borderopacity="1.0"
     inkscape:pageopacity="1"
     inkscape:pageshadow="2"
     inkscape:zoom="0.70710678"
     inkscape:cx="1087.3098"
     inkscape:cy="552.67353"
     inkscape:document-units="mm"
     inkscape:current-layer="layer3"
     showgrid="false"
     units="px"
     fit-margin-top="50"
     fit-margin-left="50"
     fit-margin-right="50"
     fit-margin-bottom="50"
     inkscape:window-width="2560"
     inkscape:window-height="1377"
     inkscape:window-x="1912"
     inkscape:window-y="-8"
     inkscape:window-maximized="1"
     showguides="false"
     inkscape:guide-bbox="true">
    <inkscape:grid
       type="xygrid"
       id="grid1676"
       originx="10.583334"
       originy="10.583333" />
    <sodipodi:guide
       position="518.96591,99.875577"
       orientation="0,1"
       id="guide1723"
       inkscape:locked="false" />
    <sodipodi:guide
       position="498.54757,99.907886"
       orientation="1,0"
       id="guide1725"
       inkscape:locked="false" />
    <sodipodi:guide
       position="519.49509,87.105633"
       orientation="0,1"
       id="guide1727"
       inkscape:locked="false" />
    <sodipodi:guide
       position="511.70053,86.753872"
       orientation="1,0"
       id="guide1729"
       inkscape:locked="false" />
    <sodipodi:guide
       position="230.693,99.907881"
       orientation="1,0"
       id="guide1731"
       inkscape:locked="false" />
    <sodipodi:guide
       position="243.847,99.907881"
       orientation="1,0"
       id="guide1733"
       inkscape:locked="false" />
    <sodipodi:guide
       position="230.94964,107.89279"
       orientation="0,1"
       id="guide1744"
       inkscape:locked="false" />
  </sodipodi:namedview>
  <metadata
     id="metadata5">
    <rdf:RDF>
      <cc:Work
         rdf:about="">
        <dc:format>image/svg+xml</dc:format>
        <dc:type
           rdf:resource="http://purl.org/dc/dcmitype/StillImage" />
        <dc:title></dc:title>
      </cc:Work>
    </rdf:RDF>
  </metadata>
  <g
     inkscape:groupmode="layer"
     id="layer3"
     inkscape:label="BAckground"
     transform="translate(13.040179,13.090504)">
    <rect
       style="opacity:1;fill:#00537b;fill-opacity:1;stroke:#ffffff;stroke-width:7.88574123;stroke-linecap:round;stroke-linejoin:miter;stroke-miterlimit:4;stroke-dasharray:none;stroke-dashoffset:0;stroke-opacity:1;paint-order:stroke fill markers"
       id="rect1572"
       width="631.44696"
       height="169.30913"
       x="4.1318583"
       y="4.0815334"
       ry="7.1384768"
       rx="7.3840313" />
  </g>
  <g
     inkscape:label="Layer 1"
     inkscape:groupmode="layer"
     id="layer1"
     transform="translate(-70.447122,235.5421)">
    <g
       aria-label="Disability &amp; Discussion"
       transform="matrix(0.36869596,0,0,0.36869596,171.65439,-308.07788)"
       style="font-style:normal;font-variant:normal;font-weight:600;font-stretch:normal;font-size:40px;line-height:1.25;font-family:'Source Sans Pro';-inkscape-font-specification:'Source Sans Pro Semi-Bold';letter-spacing:0px;word-spacing:0px;fill:#000000;fill-opacity:1;stroke:none"
       id="flowRoot815">
      <path
         d="m 204.46614,422.08834 h 45.44271 q 17.57813,0 27.21354,-8.46354 9.63542,-8.46354 9.63542,-23.95833 V 333.9373 q 0,-15.49479 -9.63542,-23.95833 -9.63541,-8.46354 -27.21354,-8.46354 h -45.44271 v -34.375 h 44.66146 q 23.69792,0 40.36458,7.94271 16.79688,7.94271 25.52084,23.17708 8.72395,15.23438 8.72395,36.71875 v 53.64583 q 0,20.44271 -8.46354,35.67708 -8.33333,15.23438 -25.13021,23.69792 -16.79687,8.46354 -41.14583,8.46354 H 204.46614 Z M 186.4974,267.14043 h 35.67708 V 456.46334 H 186.4974 Z"
         style="font-style:normal;font-variant:normal;font-weight:bold;font-stretch:normal;font-size:266.66665649px;line-height:210.98007202px;font-family:Bahnschrift;-inkscape-font-specification:'Bahnschrift Bold';letter-spacing:-2.17438674px;word-spacing:0px;fill:#ffffff;fill-opacity:1"
         id="path1678"
         inkscape:connector-curvature="0" />
      <path
         d="m 351.19918,267.14045 h 35.67708 v 35.67708 h -35.67708 z m 0,54.16667 h 35.67708 v 135.15624 h -35.67708 z"
         style="font-style:normal;font-variant:normal;font-weight:bold;font-stretch:normal;font-size:266.66665649px;line-height:210.98007202px;font-family:Bahnschrift;-inkscape-font-specification:'Bahnschrift Bold';letter-spacing:-2.17438674px;word-spacing:0px;fill:#ffffff;fill-opacity:1"
         id="path1680"
         inkscape:connector-curvature="0" />
      <path
         d="m 471.98942,458.41647 q -12.10937,0 -23.5677,-2.08334 -11.45834,-2.21354 -21.48438,-6.38021 -10.02604,-4.16666 -17.70833,-10.02604 v 0 l 22.00521,-27.47395 v 0 q 9.76562,6.25 20.44271,9.63541 10.67708,3.38542 20.31249,3.38542 12.5,0 19.40105,-2.73438 6.90104,-2.86458 6.90104,-7.8125 0,-4.55729 -2.99479,-6.90104 -2.9948,-2.34375 -7.6823,-3.25521 -4.6875,-1.04166 -13.15104,-1.82291 -2.34375,-0.26042 -4.81771,-0.52084 -2.34375,-0.26041 -4.8177,-0.52083 -0.52084,-0.13021 -1.17188,-0.13021 -0.52083,-0.13021 -1.04166,-0.13021 -15.10417,-1.95312 -24.21875,-4.8177 -9.11459,-2.86459 -15.4948,-10.9375 -6.24999,-8.20313 -6.24999,-23.69792 0,-13.54166 6.51041,-23.17708 6.51042,-9.63542 18.88021,-14.58333 12.36979,-5.07813 29.94791,-5.07813 10.28646,0 20.44271,2.08333 10.28646,2.08334 19.66146,5.98959 9.375,3.90625 17.31771,9.375 v 0 l -21.22396,25.91145 v 0 q -8.85417,-4.94791 -18.48958,-7.68229 -9.63542,-2.73437 -18.48959,-2.73437 -10.80729,0 -16.79687,2.47396 -5.98958,2.47395 -5.98958,6.90104 0,3.38541 3.125,5.33854 3.25521,1.82292 7.94271,2.73437 4.8177,0.78125 13.93229,1.82292 1.17187,0.13021 2.34375,0.26042 1.17187,0.13021 2.34375,0.26041 0.52083,0.13021 1.17187,0.13021 0.65104,0 1.17188,0.13021 15.7552,1.82292 25.65104,4.6875 9.89583,2.86458 16.79687,11.45833 7.03125,8.59375 7.03125,25.26042 0,14.0625 -6.77083,24.08854 -6.77084,10.02604 -19.79167,15.36458 -13.02083,5.20834 -31.38021,5.20834 z"
         style="font-style:normal;font-variant:normal;font-weight:bold;font-stretch:normal;font-size:266.66665649px;line-height:210.98007202px;font-family:Bahnschrift;-inkscape-font-specification:'Bahnschrift Bold';letter-spacing:-2.17438674px;word-spacing:0px;fill:#ffffff;fill-opacity:1"
         id="path1682"
         inkscape:connector-curvature="0" />
      <path
         d="m 631.01294,370.78626 q 0,-9.375 -6.25,-14.45312 -6.25,-5.07813 -17.70833,-5.07813 -7.55209,0 -14.97396,2.47396 -7.42188,2.47396 -13.15104,6.90104 l -22.13542,-21.74479 q 8.07292,-9.24479 21.35417,-14.32292 13.28125,-5.20833 29.42708,-5.20833 17.70833,0 30.20833,5.98958 12.5,5.85938 19.01042,17.1875 6.64062,11.19792 6.64062,27.08334 v 86.84895 h -32.42187 z m -37.63021,87.63021 q -21.74479,0 -32.55208,-10.28646 -10.67708,-10.41667 -10.67708,-31.51042 0,-20.05208 11.97916,-30.07812 12.10938,-10.02604 36.19792,-10.02604 h 33.85416 l 1.82292,27.21354 h -35.54687 q -8.07292,0 -12.10938,3.25521 -4.03646,3.125 -4.03646,9.63541 0,6.64063 5.07813,9.89584 5.07812,3.125 15.36458,3.125 14.32292,0 21.22396,-3.25521 7.03125,-3.25521 7.03125,-10.15625 l 2.73437,19.66146 q -0.78125,7.29166 -6.77083,12.36979 -5.85938,5.07812 -14.84375,7.68229 -8.85417,2.47396 -18.75,2.47396 z"
         style="font-style:normal;font-variant:normal;font-weight:bold;font-stretch:normal;font-size:266.66665649px;line-height:210.98007202px;font-family:Bahnschrift;-inkscape-font-specification:'Bahnschrift Bold';letter-spacing:-2.17438674px;word-spacing:0px;fill:#ffffff;fill-opacity:1"
         id="path1684"
         inkscape:connector-curvature="0" />
      <path
         d="m 763.73439,458.41647 q -11.84895,0 -20.4427,-5.98959 -8.59375,-6.11979 -12.76042,-17.1875 l 1.82292,-30.85937 q 0,6.64062 2.34375,11.32812 2.34375,4.6875 6.77083,7.16146 4.55729,2.47396 10.9375,2.47396 10.02604,0 15.49479,-6.64062 5.59896,-6.64063 5.59896,-18.75 v -21.48438 q 0,-12.36979 -5.59896,-19.14062 -5.46875,-6.90104 -15.49479,-6.90104 -6.38021,0 -10.9375,2.60416 -4.42708,2.47396 -6.77083,7.29167 -2.34375,4.81771 -2.34375,11.71875 l -2.73438,-29.94792 q 5.46875,-11.84895 14.32292,-18.22916 8.98437,-6.51042 19.79166,-6.51042 14.32292,0 24.47917,6.90104 10.28646,6.90104 15.625,20.18229 5.33854,13.28125 5.33854,31.90104 v 21.61459 q 0,18.48958 -5.33854,31.64062 -5.33854,13.02083 -15.625,19.92187 -10.15625,6.90105 -24.47917,6.90105 z M 696.6771,267.14043 h 35.67709 V 456.46334 H 696.6771 Z"
         style="font-style:normal;font-variant:normal;font-weight:bold;font-stretch:normal;font-size:266.66665649px;line-height:210.98007202px;font-family:Bahnschrift;-inkscape-font-specification:'Bahnschrift Bold';letter-spacing:-2.17438674px;word-spacing:0px;fill:#ffffff;fill-opacity:1"
         id="path1686"
         inkscape:connector-curvature="0" />
      <path
         d="m 837.8621,267.14043 h 35.67708 v 35.67708 H 837.8621 Z m 0,54.16667 h 35.67708 V 456.46334 H 837.8621 Z"
         style="font-style:normal;font-variant:normal;font-weight:bold;font-stretch:normal;font-size:266.66665649px;line-height:210.98007202px;font-family:Bahnschrift;-inkscape-font-specification:'Bahnschrift Bold';letter-spacing:-2.17438674px;word-spacing:0px;fill:#ffffff;fill-opacity:1"
         id="path1688"
         inkscape:connector-curvature="0" />
      <path
         d="m 940.50543,411.80188 q 0,4.94792 2.73438,7.6823 2.86458,2.60416 8.07291,2.60416 h 5.98959 v 34.375 h -18.22917 q -16.27604,0 -25.26042,-9.375 -8.98437,-9.375 -8.98437,-26.43229 V 267.14043 h 35.67708 z"
         style="font-style:normal;font-variant:normal;font-weight:bold;font-stretch:normal;font-size:266.66665649px;line-height:210.98007202px;font-family:Bahnschrift;-inkscape-font-specification:'Bahnschrift Bold';letter-spacing:-2.17438674px;word-spacing:0px;fill:#ffffff;fill-opacity:1"
         id="path1690"
         inkscape:connector-curvature="0" />
      <path
         d="m 977.78416,267.14043 h 35.67714 v 35.67708 h -35.67714 z m 0,54.16667 h 35.67714 v 135.15624 h -35.67714 z"
         style="font-style:normal;font-variant:normal;font-weight:bold;font-stretch:normal;font-size:266.66665649px;line-height:210.98007202px;font-family:Bahnschrift;-inkscape-font-specification:'Bahnschrift Bold';letter-spacing:-2.17438674px;word-spacing:0px;fill:#ffffff;fill-opacity:1"
         id="path1692"
         inkscape:connector-curvature="0" />
      <path
         d="m 1082.5109,457.11438 q -17.7084,0 -26.0417,-8.98437 -8.2031,-9.11458 -8.2031,-26.82292 V 281.98418 h 35.6771 v 130.46875 q 0,4.94791 1.9531,7.68229 1.9531,2.60416 5.7291,2.60416 h 8.8542 v 34.375 z M 1034.3338,321.3071 h 66.1458 v 30.46875 h -66.1458 z"
         style="font-style:normal;font-variant:normal;font-weight:bold;font-stretch:normal;font-size:266.66665649px;line-height:210.98007202px;font-family:Bahnschrift;-inkscape-font-specification:'Bahnschrift Bold';letter-spacing:-2.17438674px;word-spacing:0px;fill:#ffffff;fill-opacity:1"
         id="path1694"
         inkscape:connector-curvature="0" />
      <path
         d="m 1240.1021,321.3071 -60.1563,166.79686 q -3.3854,9.2448 -8.4635,14.58334 -4.9479,5.46875 -12.3698,7.8125 -7.2917,2.34375 -18.099,2.34375 h -7.9427 v -34.63542 h 7.9427 q 5.7292,0 9.5052,-2.60416 3.9063,-2.47396 5.8594,-8.20313 l 50.1302,-146.09374 z m -124.8698,0 h 33.5937 l 45.4427,117.44791 -22.526,28.77604 z"
         style="font-style:normal;font-variant:normal;font-weight:bold;font-stretch:normal;font-size:266.66665649px;line-height:210.98007202px;font-family:Bahnschrift;-inkscape-font-specification:'Bahnschrift Bold';letter-spacing:-2.17438674px;word-spacing:0px;fill:#ffffff;fill-opacity:1"
         id="path1696"
         inkscape:connector-curvature="0" />
      <path
         d="m 1336.685,381.20293 q -9.5052,-10.02604 -15.8854,-20.18229 -6.25,-10.28646 -9.5052,-21.09375 -3.2552,-10.80729 -3.2552,-22.26563 0,-24.86979 13.9323,-38.41145 13.9323,-13.67188 39.4531,-13.67188 25.3906,0 39.1927,13.15104 13.9323,13.02084 13.9323,36.97917 v 5.20833 h -35.6771 v -5.20833 q 0,-11.45833 -4.5573,-17.83854 -4.5573,-6.38021 -12.8906,-6.38021 -9.6354,0 -14.974,6.90104 -5.3385,6.77083 -5.3385,19.27083 0,6.90104 3.3854,15.49479 3.3854,8.46355 9.7656,18.09896 6.5105,9.50521 15.4948,19.40104 l 77.9948,85.80729 h -40.2344 z m 15.2344,-7.94271 q -13.8021,0 -21.3542,8.07292 -7.4219,8.07291 -7.4219,22.78645 0,10.80729 8.073,16.79688 8.0729,5.85937 22.7864,5.85937 14.1927,0 24.349,-8.33333 10.1562,-8.46354 15.4948,-23.95833 5.3385,-15.625 5.3385,-36.58854 h 34.375 q 0,31.11979 -9.8958,53.77604 -9.8959,22.52604 -29.0365,34.63541 -19.1406,12.10938 -46.4844,12.10938 -18.4895,0 -31.6406,-6.38021 -13.151,-6.38021 -20.0521,-18.48958 -6.901,-12.23959 -6.901,-29.42709 0,-23.17708 13.4115,-37.10937 13.5416,-13.93229 38.0208,-16.14583 z"
         style="line-height:210.98007202px;letter-spacing:-35.88096619px;fill:#ffffff;fill-opacity:1"
         id="path1698"
         inkscape:connector-curvature="0" />
      <path
         d="m 204.46614,633.06841 h 45.44271 q 17.57813,0 27.21354,-8.46354 9.63542,-8.46354 9.63542,-23.95833 v -55.72916 q 0,-15.49479 -9.63542,-23.95834 -9.63541,-8.46354 -27.21354,-8.46354 h -45.44271 v -34.375 h 44.66146 q 23.69792,0 40.36458,7.94271 16.79688,7.94271 25.52084,23.17708 8.72395,15.23438 8.72395,36.71875 v 53.64583 q 0,20.44271 -8.46354,35.67709 -8.33333,15.23437 -25.13021,23.69791 -16.79687,8.46354 -41.14583,8.46354 H 204.46614 Z M 186.4974,478.1205 h 35.67708 V 667.44341 H 186.4974 Z"
         style="font-style:normal;font-variant:normal;font-weight:bold;font-stretch:normal;font-size:266.66665649px;line-height:210.98007202px;font-family:Bahnschrift;-inkscape-font-specification:'Bahnschrift Bold';letter-spacing:-5.74095345px;word-spacing:0px;fill:#ffffff;fill-opacity:1"
         id="path1700"
         inkscape:connector-curvature="0" />
      <path
         d="m 351.19918,478.20813 h 35.67709 v 34.63543 h -35.67709 z m -3e-5,54.07904 h 35.67708 v 135.15624 h -35.67708 z"
         style="font-style:normal;font-variant:normal;font-weight:bold;font-stretch:normal;font-size:266.66665649px;line-height:210.98007202px;font-family:Bahnschrift;-inkscape-font-specification:'Bahnschrift Bold';letter-spacing:-5.74095345px;word-spacing:0px;fill:#ffffff;fill-opacity:1"
         id="path1702"
         inkscape:connector-curvature="0"
         sodipodi:nodetypes="cccccccccc" />
      <path
         d="m 466.29153,669.39654 q -12.10937,0 -23.56771,-2.08334 -11.45833,-2.21354 -21.48437,-6.3802 -10.02604,-4.16667 -17.70833,-10.02604 v 0 l 22.0052,-27.47396 v 0 q 9.76563,6.25 20.44271,9.63541 10.67709,3.38542 20.3125,3.38542 12.5,0 19.40104,-2.73437 6.90104,-2.86459 6.90104,-7.8125 0,-4.5573 -2.99479,-6.90105 -2.99479,-2.34374 -7.68229,-3.2552 -4.6875,-1.04167 -13.15104,-1.82292 -2.34375,-0.26042 -4.81771,-0.52083 -2.34375,-0.26042 -4.81771,-0.52084 -0.52083,-0.1302 -1.17187,-0.1302 -0.52083,-0.13021 -1.04167,-0.13021 -15.10416,-1.95313 -24.21875,-4.81771 -9.11458,-2.86458 -15.49479,-10.9375 -6.25,-8.20313 -6.25,-23.69792 0,-13.54166 6.51042,-23.17708 6.51042,-9.63542 18.88021,-14.58333 12.36979,-5.07813 29.94791,-5.07813 10.28646,0 20.44271,2.08334 10.28646,2.08333 19.66146,5.98958 9.375,3.90625 17.3177,9.375 v 0 l -21.22395,25.91146 v 0 q -8.85417,-4.94792 -18.48959,-7.68229 -9.63541,-2.73438 -18.48958,-2.73438 -10.80729,0 -16.79687,2.47396 -5.98959,2.47396 -5.98959,6.90104 0,3.38542 3.125,5.33854 3.25521,1.82292 7.94271,2.73438 4.81771,0.78125 13.93229,1.82291 1.17188,0.13021 2.34375,0.26042 1.17188,0.13021 2.34375,0.26042 0.52084,0.1302 1.17188,0.1302 0.65104,0 1.17187,0.13021 15.75521,1.82292 25.65104,4.6875 9.89584,2.86459 16.79688,11.45834 7.03125,8.59375 7.03125,25.26041 0,14.0625 -6.77084,24.08854 -6.77083,10.02604 -19.79166,15.36458 -13.02083,5.20834 -31.38021,5.20834 z"
         style="font-style:normal;font-variant:normal;font-weight:bold;font-stretch:normal;font-size:266.66665649px;line-height:210.98007202px;font-family:Bahnschrift;-inkscape-font-specification:'Bahnschrift Bold';letter-spacing:-5.74095345px;word-spacing:0px;fill:#ffffff;fill-opacity:1"
         id="path1704"
         inkscape:connector-curvature="0" />
      <path
         d="m 604.56097,669.39654 q -19.27083,0 -33.07291,-7.29167 -13.67188,-7.42187 -20.83334,-21.48437 -7.16145,-14.0625 -7.16145,-33.85417 v -14.45312 q 0,-19.66146 7.16145,-33.46354 7.16146,-13.93229 20.83334,-21.22396 13.80208,-7.29167 33.07291,-7.29167 11.06771,0 20.83333,2.60417 9.89584,2.47396 17.70834,7.29167 7.8125,4.8177 13.02083,11.71875 v 0 l -23.04687,22.39583 v 0 q -4.94792,-4.55729 -11.58855,-7.03125 -6.64062,-2.60417 -13.93229,-2.60417 -13.54166,0 -20.96354,7.29167 -7.42187,7.16146 -7.42187,20.3125 v 14.45312 q 0,13.54167 7.42187,20.96354 7.42188,7.29167 20.96354,7.29167 7.42188,0 14.0625,-2.73438 6.64063,-2.73437 11.45834,-7.8125 v 0 l 23.04687,23.69792 v 0 q -5.33854,6.77083 -13.15104,11.58854 -7.8125,4.6875 -17.57813,7.16146 -9.76562,2.47396 -20.83333,2.47396 z"
         style="font-style:normal;font-variant:normal;font-weight:bold;font-stretch:normal;font-size:266.66665649px;line-height:210.98007202px;font-family:Bahnschrift;-inkscape-font-specification:'Bahnschrift Bold';letter-spacing:-5.74095345px;word-spacing:0px;fill:#ffffff;fill-opacity:1"
         id="path1706"
         inkscape:connector-curvature="0" />
      <path
         d="m 748.95024,532.28717 h 35.54688 v 135.15624 h -35.54688 z m -41.92708,82.16145 q 0,9.76563 5.46875,15.23438 5.59896,5.33854 15.625,5.33854 10.02604,0 15.36458,-5.46875 5.46875,-5.59896 5.46875,-15.88542 l 1.82292,29.55729 q -3.77604,11.06771 -12.63021,18.61979 -8.72396,7.55209 -21.35416,7.55209 -21.7448,0 -33.59375,-13.93229 -11.84896,-14.0625 -11.84896,-39.71354 v -83.46354 h 35.67708 z"
         style="font-style:normal;font-variant:normal;font-weight:bold;font-stretch:normal;font-size:266.66665649px;line-height:210.98007202px;font-family:Bahnschrift;-inkscape-font-specification:'Bahnschrift Bold';letter-spacing:-5.74095345px;word-spacing:0px;fill:#ffffff;fill-opacity:1"
         id="path1708"
         inkscape:connector-curvature="0" />
      <path
         d="m 865.73535,669.39654 q -12.10938,0 -23.56771,-2.08334 -11.45833,-2.21354 -21.48437,-6.3802 -10.02604,-4.16667 -17.70834,-10.02604 v 0 L 824.98014,623.433 v 0 q 9.76563,6.25 20.44271,9.63541 10.67708,3.38542 20.3125,3.38542 12.5,0 19.40104,-2.73437 6.90104,-2.86459 6.90104,-7.8125 0,-4.5573 -2.99479,-6.90105 -2.99479,-2.34374 -7.68229,-3.2552 -4.6875,-1.04167 -13.15104,-1.82292 -2.34375,-0.26042 -4.81771,-0.52083 -2.34375,-0.26042 -4.81771,-0.52084 -0.52083,-0.1302 -1.17187,-0.1302 -0.52084,-0.13021 -1.04167,-0.13021 -15.10417,-1.95313 -24.21875,-4.81771 -9.11458,-2.86458 -15.49479,-10.9375 -6.25,-8.20313 -6.25,-23.69792 0,-13.54166 6.51042,-23.17708 6.51041,-9.63542 18.8802,-14.58333 12.36979,-5.07813 29.94792,-5.07813 10.28646,0 20.44271,2.08334 10.28645,2.08333 19.66145,5.98958 9.375,3.90625 17.31771,9.375 v 0 l -21.22396,25.91146 v 0 q -8.85416,-4.94792 -18.48958,-7.68229 -9.63541,-2.73438 -18.48958,-2.73438 -10.80729,0 -16.79688,2.47396 -5.98958,2.47396 -5.98958,6.90104 0,3.38542 3.125,5.33854 3.25521,1.82292 7.94271,2.73438 4.81771,0.78125 13.93229,1.82291 1.17188,0.13021 2.34375,0.26042 1.17188,0.13021 2.34375,0.26042 0.52083,0.1302 1.17188,0.1302 0.65104,0 1.17187,0.13021 15.75521,1.82292 25.65104,4.6875 9.89583,2.86459 16.79688,11.45834 7.03125,8.59375 7.03125,25.26041 0,14.0625 -6.77084,24.08854 -6.77083,10.02604 -19.79166,15.36458 -13.02084,5.20834 -31.38021,5.20834 z"
         style="font-style:normal;font-variant:normal;font-weight:bold;font-stretch:normal;font-size:266.66665649px;line-height:210.98007202px;font-family:Bahnschrift;-inkscape-font-specification:'Bahnschrift Bold';letter-spacing:-5.74095345px;word-spacing:0px;fill:#ffffff;fill-opacity:1"
         id="path1710"
         inkscape:connector-curvature="0" />
      <path
         d="m 998.53601,669.39654 q -12.10938,0 -23.56771,-2.08334 -11.45833,-2.21354 -21.48437,-6.3802 -10.02604,-4.16667 -17.70834,-10.02604 v 0 L 957.7808,623.433 v 0 q 9.76563,6.25 20.44271,9.63541 10.67708,3.38542 20.3125,3.38542 12.49999,0 19.40099,-2.73437 6.9011,-2.86459 6.9011,-7.8125 0,-4.5573 -2.9948,-6.90105 -2.9948,-2.34374 -7.6823,-3.2552 -4.6875,-1.04167 -13.151,-1.82292 -2.34378,-0.26042 -4.81774,-0.52083 -2.34375,-0.26042 -4.81771,-0.52084 -0.52083,-0.1302 -1.17187,-0.1302 -0.52084,-0.13021 -1.04167,-0.13021 -15.10417,-1.95313 -24.21875,-4.81771 -9.11458,-2.86458 -15.49479,-10.9375 -6.25,-8.20313 -6.25,-23.69792 0,-13.54166 6.51041,-23.17708 6.51042,-9.63542 18.88021,-14.58333 12.36979,-5.07813 29.94792,-5.07813 10.28649,0 20.44269,2.08334 10.2865,2.08333 19.6615,5.98958 9.375,3.90625 17.3177,9.375 v 0 l -21.224,25.91146 v 0 q -8.8541,-4.94792 -18.4896,-7.68229 -9.6354,-2.73438 -18.48954,-2.73438 -10.80729,0 -16.79688,2.47396 -5.98958,2.47396 -5.98958,6.90104 0,3.38542 3.125,5.33854 3.25521,1.82292 7.94271,2.73438 4.81771,0.78125 13.93229,1.82291 1.1719,0.13021 2.3437,0.26042 1.1719,0.13021 2.3438,0.26042 0.5208,0.1302 1.1719,0.1302 0.651,0 1.1718,0.13021 15.7553,1.82292 25.6511,4.6875 9.8958,2.86459 16.7969,11.45834 7.0312,8.59375 7.0312,25.26041 0,14.0625 -6.7708,24.08854 -6.7709,10.02604 -19.7917,15.36458 -13.0208,5.20834 -31.38019,5.20834 z"
         style="font-style:normal;font-variant:normal;font-weight:bold;font-stretch:normal;font-size:266.66665649px;line-height:210.98007202px;font-family:Bahnschrift;-inkscape-font-specification:'Bahnschrift Bold';letter-spacing:-5.74095345px;word-spacing:0px;fill:#ffffff;fill-opacity:1"
         id="path1712"
         inkscape:connector-curvature="0" />
      <path
         d="m 1077.6909,478.20813 h 35.6743 l -10e-5,34.63543 h -35.6743 z m 0,54.07904 h 35.6771 v 135.15624 h -35.6771 z"
         style="font-style:normal;font-variant:normal;font-weight:bold;font-stretch:normal;font-size:266.66665649px;line-height:210.98007202px;font-family:Bahnschrift;-inkscape-font-specification:'Bahnschrift Bold';letter-spacing:-5.74095345px;word-spacing:0px;fill:#ffffff;fill-opacity:1"
         id="path1714"
         inkscape:connector-curvature="0"
         sodipodi:nodetypes="cccccccccc" />
      <path
         d="m 1195.5176,669.39654 q -18.4895,0 -31.6406,-6.90104 -13.0208,-6.90104 -19.9219,-20.05209 -6.7708,-13.28125 -6.7708,-31.90104 v -22.0052 q 0,-18.35938 6.7708,-31.38021 6.9011,-13.15104 19.9219,-19.92188 13.1511,-6.90104 31.6406,-6.90104 18.4896,0 31.5105,6.90104 13.151,6.77084 19.9218,19.92188 6.9011,13.02083 6.9011,31.38021 V 610.933 q 0,18.48958 -6.9011,31.64062 -6.7708,13.02084 -19.9218,19.92188 -13.0209,6.90104 -31.5105,6.90104 z m -0.1302,-34.375 q 10.8073,0 16.7969,-6.25 5.9896,-6.38021 5.9896,-17.83854 v -22.39583 q 0,-11.32813 -5.9896,-17.57813 -5.9896,-6.25 -16.7969,-6.25 -10.6771,0 -16.6666,6.25 -5.8594,6.25 -5.8594,17.57813 V 610.933 q 0,11.45833 5.8594,17.83854 5.8593,6.25 16.6666,6.25 z"
         style="font-style:normal;font-variant:normal;font-weight:bold;font-stretch:normal;font-size:266.66665649px;line-height:210.98007202px;font-family:Bahnschrift;-inkscape-font-specification:'Bahnschrift Bold';letter-spacing:-5.74095345px;word-spacing:0px;fill:#ffffff;fill-opacity:1"
         id="path1716"
         inkscape:connector-curvature="0" />
      <path
         d="m 1280.6621,532.28717 h 35.6771 v 135.15624 h -35.6771 z m 78.125,53.2552 q 0,-9.89583 -5.7291,-15.36458 -5.599,-5.46875 -16.0156,-5.46875 -9.8959,0 -15.3646,5.59896 -5.3386,5.46875 -5.3386,15.49479 l -2.7343,-29.94791 q 6.1197,-12.76042 14.5833,-19.14063 8.5937,-6.38021 21.4844,-6.38021 21.3541,0 33.0729,14.45313 11.7187,14.32291 11.7187,40.625 v 82.03124 h -35.6771 z"
         style="font-style:normal;font-variant:normal;font-weight:bold;font-stretch:normal;font-size:266.66665649px;line-height:210.98007202px;font-family:Bahnschrift;-inkscape-font-specification:'Bahnschrift Bold';letter-spacing:-5.74095345px;word-spacing:0px;fill:#ffffff;fill-opacity:1"
         id="path1718"
         inkscape:connector-curvature="0" />
    </g>
    <g
       id="g838"
       transform="matrix(0.38696968,0,0,0.38696968,73.772315,-222.04526)"
       style="fill:url(#pattern2244);fill-opacity:1;stroke:#ffffff;stroke-width:11.55506134;stroke-miterlimit:4;stroke-dasharray:none;stroke-opacity:1">
      <g
         id="g2296"
         style="fill:url(#pattern2244);fill-opacity:1;stroke:#ffffff;stroke-width:11.55506134;stroke-miterlimit:4;stroke-dasharray:none;stroke-opacity:1">
        <path
           id="path832"
           d="m 299.817,44.264 c 7.569,-5.321 17.729,-8.346 28.609,-6.4 7.479,1.338 13.424,4.58 18.258,9.035 7.214,6.649 11.979,15.999 12.233,27.292 0.499,22.133 -16.917,39.711 -40.654,38.208 -11.318,-0.716 -19.489,-5.664 -25.975,-13.363 -4.363,-5.181 -7.109,-10.312 -8.47,-18.634 -2.612,-15.985 6.452,-29.426 15.999,-36.138 z"
           inkscape:connector-curvature="0"
           style="clip-rule:evenodd;fill:url(#pattern2244);fill-opacity:1;fill-rule:evenodd;stroke:#ffffff;stroke-width:11.55506134;stroke-miterlimit:4;stroke-dasharray:none;stroke-opacity:1" />
        <path
           id="path834"
           d="m 109.34,217.991 c 14.626,-13.856 32.161,-24.429 55.148,-29.175 1.534,-0.316 3.369,-0.188 4.706,-0.752 1.543,-0.652 4.108,-4.602 5.082,-5.646 17.673,-18.982 34.038,-38.667 51.196,-57.972 -10.198,-6.364 -20.875,-12.252 -31.433,-18.257 -12.37,10.319 -23.871,21.479 -36.326,32.374 -5.657,4.948 -15.165,10.418 -25.41,6.211 -8.557,-3.513 -15.05632,-12.04496 -14.304,-23.527 0.62868,-9.59496 8.002,-14.739 14.116,-20.328 12.522,-11.449 25.411,-23.192 38.396,-34.445 4.452,-3.856 8.609,-8.4 15.435,-9.976 2.71675,-0.64921 4.49235,-0.779527 7.529,-0.564 5.782,0.504 10.736,4.083 15.434,6.776 23.316,13.362 47.015,27.078 70.582,40.467 4.574,2.599 9.273,5.373 13.929,8.282 4.675,2.924 9.979,4.966 14.116,8.093 8.295,6.271 12.083,20.271 7.34,31.057 -2.927,6.659 -8.819,11.796 -13.552,17.316 -10.895,12.71 -22.68,25.843 -33.879,38.773 23.524,-0.947 50.077,-2.709 72.841,-4.517 3.396,-0.12047 7.315,-0.235 11.482,0.564 11.157,2.143 19.149,11.679 17.88,25.598 -3.065,33.617 -5.544,69.509 -8.282,105.027 -0.75,9.749 -1.192,16.809 -6.211,22.587 -5.236,6.025 -15.641,10.39 -25.221,6.399 -7.929,-3.305 -14.661,-10.555 -14.494,-21.27 0.081,-5.145 0.971,-10.818 1.318,-16.375 1.528,-24.485 4.284,-51.931 5.835,-75.664 -8.874,0.014 -20.349,1.24 -29.928,1.506 8.887,18.267 14.441,45.366 9.599,72.088 -4.277,23.608 -15.495,43.49 -29.549,57.406 -9.928,-9.458 -19.488,-19.286 -29.363,-28.798 7.571,-8.275 14.315,-19.437 17.316,-31.997 3.063,-12.814 2.794,-26.058 -0.94,-38.773 -10.455,-30.812 -34.41,-52.358 -73.406,-53.077 -9.432,-0.174 -19.531,2.795 -27.104,6.21 -8.044,3.63 -14.584,7.909 -20.892,13.176 -9.824,-9.438 -19.096,-19.427 -28.986,-28.797 z"
           inkscape:connector-curvature="0"
           style="clip-rule:evenodd;fill:url(#pattern2244);fill-opacity:1;fill-rule:evenodd;stroke:none;stroke-width:11.55506134;stroke-miterlimit:4;stroke-dasharray:none;stroke-opacity:1"
           sodipodi:nodetypes="ccccccccscccccccccccccccccccccccccccccc" />
        <path
           id="path836"
           d="m 229.987,362.92 c 7.847,6.831 15.138,14.572 22.587,22.021 2.449,2.45 7.153,7.341 7.153,7.341 -19.905,15.379 -47.352,26.005 -80.747,23.904 -12.206,-0.768 -23.082,-4.09 -32.938,-7.529 -3.02,-1.054 -5.926,-2.636 -8.658,-3.951 -6.062,-2.923 -12.049,-6.073 -17.128,-9.788 -5.209,-3.812 -9.731,-8.247 -14.305,-12.611 -16.981,-16.206 -30.782,-42.661 -32.75,-72.653 -0.955,-14.557 1.035,-31.216 5.458,-44.23 4.511,-13.272 10.954,-24.095 18.446,-34.445 7.558,6.623 14.521,14.112 21.834,21.27 2.5,2.447 8.31676,7.65109 8.31676,7.65109 L 124.774,263.543 c -5.525,8.976 -9.613,20.43 -10.54,33.88 -1.083,15.705 3.326,30.263 9.787,41.029 6.092,10.155 14.549,19.32 25.221,25.976 10.588,6.603 24.173,11.311 38.962,11.293 17.27,-0.022 30.648,-5.655 41.783,-12.801 z"
           inkscape:connector-curvature="0"
           style="clip-rule:evenodd;fill:url(#pattern2244);fill-opacity:1;fill-rule:evenodd;stroke:#ffffff;stroke-width:11.55506134;stroke-miterlimit:4;stroke-dasharray:none;stroke-opacity:1"
           sodipodi:nodetypes="ccccccccccccccccccc" />
        <path
           style="fill:#784f17;fill-opacity:1;stroke:none;stroke-width:0.68373144px;stroke-linecap:butt;stroke-linejoin:miter;stroke-opacity:1"
           d="m 123.73343,108.37034 67.30017,-4.56574 -51.25678,42.99336 c -18.49428,-5.38912 -20.84969,-14.50814 -16.04339,-38.42762 z"
           id="path1664"
           inkscape:connector-curvature="0"
           sodipodi:nodetypes="cccc" />
      </g>
      <g
         inkscape:groupmode="layer"
         id="layer4"
         inkscape:label="Layer 2">
        <path
           id="path834-5"
           d="m 109.34,217.991 c 14.626,-13.85601 32.161,-24.42901 55.148,-29.17501 1.534,-0.316 3.369,-0.188 4.706,-0.75199 1.543,-0.65201 4.108,-4.60201 5.082,-5.646 17.67301,-18.98201 34.03801,-38.66701 51.196,-57.97201 -10.19799,-6.364 -20.87499,-12.252 -31.433,-18.257 -12.37,10.319 -23.871,21.479 -36.326,32.374 -5.657,4.948 -15.165,10.418 -25.41,6.211 -8.557,-3.513 -15.05632,-12.04496 -14.304,-23.527 0.62868,-9.59496 8.002,-14.739 14.116,-20.328 12.522,-11.449 25.411,-23.192 38.396,-34.445 4.452,-3.856 8.609,-8.4 15.43501,-9.976 2.71674,-0.64921 4.49235,-0.77953 7.529,-0.564 5.782,0.504 10.736,4.083 15.434,6.776 23.316,13.362 47.015,27.078 70.582,40.467 4.57399,2.599 9.273,5.373 13.929,8.282 4.675,2.924 9.979,4.966 14.116,8.093 8.295,6.271 12.083,20.271 7.34,31.057 -2.927,6.659 -8.819,11.796 -13.552,17.31601 -10.895,12.70999 -22.68,25.84299 -33.87901,38.773 23.52401,-0.94701 50.07701,-2.709 72.84101,-4.51701 3.396,-0.12046 7.315,-0.235 11.482,0.56401 11.157,2.14299 19.149,11.679 17.88,25.59799 -3.065,33.617 -5.544,69.50901 -8.282,105.02701 -0.75,9.749 -1.192,16.809 -6.211,22.587 -5.236,6.025 -15.641,10.38999 -25.221,6.399 -7.929,-3.305 -14.661,-10.555 -14.494,-21.27 0.081,-5.145 0.971,-10.818 1.318,-16.375 1.528,-24.48501 4.284,-51.931 5.835,-75.66401 -8.874,0.014 -20.349,1.24001 -29.928,1.506 8.887,18.267 14.441,45.366 9.599,72.088 -4.277,23.60801 -15.495,43.49001 -29.549,57.40601 -9.928,-9.45801 -19.488,-19.286 -29.36301,-28.79801 7.57101,-8.27499 14.31501,-19.437 17.31601,-31.99699 3.063,-12.814 2.794,-26.05801 -0.94,-38.773 -10.455,-30.812 -34.41,-52.358 -73.406,-53.07701 C 176.89,227.228 166.791,230.197 159.218,233.612 c -8.044,3.63 -14.584,7.90899 -20.892,13.17599 C 128.502,237.35 119.23,227.361 109.34,217.991 Z"
           inkscape:connector-curvature="0"
           style="clip-rule:evenodd;fill:none;fill-opacity:1;fill-rule:evenodd;stroke:#ffffff;stroke-width:11.55506134;stroke-miterlimit:4;stroke-dasharray:none;stroke-opacity:1"
           sodipodi:nodetypes="ccccccccscccccccccccccccccccccccccccccc" />
      </g>
    </g>
    <flowRoot
       xml:space="preserve"
       id="flowRoot844"
       style="font-style:normal;font-variant:normal;font-weight:600;font-stretch:normal;font-size:40px;line-height:1.25;font-family:'Source Sans Pro';-inkscape-font-specification:'Source Sans Pro Semi-Bold';letter-spacing:0px;word-spacing:0px;fill:#000000;fill-opacity:1;stroke:none"
       transform="matrix(0.26458333,0,0,0.26458333,237.76939,-211.86826)"><flowRegion
         id="flowRegion846"><rect
           id="rect848"
           width="2877.1428"
           height="1162.8572"
           x="-668.57141"
           y="-107.33304" /></flowRegion><flowPara
         id="flowPara850" /></flowRoot>  </g>
  <g
     inkscape:groupmode="layer"
     id="layer2"
     inkscape:label="Work"
     style="display:none"
     transform="translate(13.644979,16.582104)"
     sodipodi:insensitive="true">
    <rect
       style="fill:url(#pattern2891);stroke:none"
       width="205.58125"
       height="127"
       x="225.29269"
       y="-198.74284"
       id="rect2894" />
    <rect
       style="fill:url(#pattern2223);stroke:none"
       width="205.58125"
       height="127"
       x="476.70358"
       y="-197.42519"
       id="rect2234" />
  </g>
</svg>
